<?xml version="1.0" encoding="UTF-8" standalone="no"?>
<!-- Created with Inkscape (http://www.inkscape.org/) -->

<svg
   xmlns:dc="http://purl.org/dc/elements/1.1/"
   xmlns:cc="http://creativecommons.org/ns#"
   xmlns:rdf="http://www.w3.org/1999/02/22-rdf-syntax-ns#"
   xmlns:svg="http://www.w3.org/2000/svg"
   xmlns="http://www.w3.org/2000/svg"
   xmlns:sodipodi="http://sodipodi.sourceforge.net/DTD/sodipodi-0.dtd"
   xmlns:inkscape="http://www.inkscape.org/namespaces/inkscape"
   id="svg2698"
   sodipodi:version="0.32"
   inkscape:version="0.91 r13725"
   width="800"
   height="300"
   xml:space="preserve"
   sodipodi:docname="One_Ring_inscription.svg"
   version="1.0"
   inkscape:output_extension="org.inkscape.output.svg.inkscape"><metadata
     id="metadata2703"><rdf:RDF><cc:Work
         rdf:about=""><dc:format>image/svg+xml</dc:format><dc:type
           rdf:resource="http://purl.org/dc/dcmitype/StillImage" /><dc:title></dc:title></cc:Work></rdf:RDF></metadata><defs
     id="defs2701"><inkscape:perspective
       sodipodi:type="inkscape:persp3d"
       inkscape:vp_x="0 : 526.18109 : 1"
       inkscape:vp_y="0 : 1000 : 0"
       inkscape:vp_z="744.09448 : 526.18109 : 1"
       inkscape:persp3d-origin="372.04724 : 350.78739 : 1"
       id="perspective2705" /><clipPath
       clipPathUnits="userSpaceOnUse"
       id="clipPath2935"><path
         d="M 0,0 0,0 0,0 0,0 Z"
         id="path2937"
         inkscape:connector-curvature="0" /></clipPath><clipPath
       clipPathUnits="userSpaceOnUse"
       id="clipPath3247"><path
         d="M 0,0 0,0 0,0 0,0 Z"
         id="path3249"
         inkscape:connector-curvature="0" /></clipPath><inkscape:perspective
       id="perspective3882"
       inkscape:persp3d-origin="372.04724 : 350.78739 : 1"
       inkscape:vp_z="744.09448 : 526.18109 : 1"
       inkscape:vp_y="0 : 1000 : 0"
       inkscape:vp_x="0 : 526.18109 : 1"
       sodipodi:type="inkscape:persp3d" /></defs><sodipodi:namedview
     inkscape:window-height="995"
     inkscape:window-width="1680"
     inkscape:pageshadow="2"
     inkscape:pageopacity="0.0"
     guidetolerance="10.0"
     gridtolerance="10.0"
     objecttolerance="10.0"
     borderopacity="1.0"
     bordercolor="#666666"
     pagecolor="#ffffff"
     id="base"
     showgrid="false"
     inkscape:zoom="1"
     inkscape:cx="287.30808"
     inkscape:cy="-0.36906806"
     inkscape:window-x="1918"
     inkscape:window-y="-3"
     inkscape:current-layer="g2707"
     inkscape:window-maximized="1" /><g
     id="g2707"
     inkscape:groupmode="layer"
     inkscape:label="THE_ONE_RING"
     transform="matrix(1.25,0,0,-1.25,55.698758,364.91688)"><g
       id="g2709" /><g
       id="g3551" /><g
       id="g4251"
       transform="matrix(1.825315,0,0,1.825315,17.775937,-16.702502)"><g
         transform="matrix(3.5961261,0,0,3.5961261,-42.305698,-218.40281)"
         id="g2715"><path
           inkscape:connector-curvature="0"
           id="path2717"
           style="fill:#000000;fill-opacity:1;fill-rule:evenodd;stroke:none"
           d="m 37.524,96.892 c 0,0 0.677,0.386 1.636,0.223 0.978,-0.167 2.599,0.006 3.023,0.7 0,0 -0.424,-0.319 -1.123,-0.25 0,0 1.41,1.112 0.915,1.768 -0.381,0.506 -1.538,-0.305 -1.538,-0.305 0,0 0,0.478 -0.459,0.478 -0.527,0 -1.345,-0.658 -1.692,-1.047 0,0 0.463,0.803 0.209,1.027 -0.203,0.178 -1.449,-0.693 -1.449,-0.693 0,0 0.132,0.637 -0.389,0.693 -0.519,0.055 -1.125,-0.397 -1.649,-0.936 0,0 0.557,0.949 0.097,0.943 0,0 0.451,0.915 1.401,1.761 0.948,0.845 1.663,0.79 1.906,0.506 0.242,-0.284 0.139,-0.812 -0.25,-0.915 -0.388,-0.105 -0.554,0.194 -0.498,0.353 0,0 0.359,-0.069 0.47,0.132 0.111,0.201 0.035,0.457 -0.284,0.457 -0.319,0 -0.548,-0.235 -0.575,-0.63 -0.028,-0.396 0.347,-0.603 0.755,-0.603 0.41,0 0.922,0.45 0.922,1.074 0,0.624 -0.38,0.798 -0.693,0.798 -0.312,0 -0.984,-0.111 -1.982,-1.096 -0.999,-0.984 -1.54,-1.969 -1.54,-1.969 0,0 -0.416,-0.228 -1.033,-0.644 0,0 0.028,0.554 -0.422,0.72 -0.451,0.167 -1.096,-0.215 -1.623,-0.568 0,0 -0.003,0.485 -0.472,0.61 -0.491,0.132 -1.435,-0.742 -1.435,-0.742 0,0 0.264,0.562 0.021,0.708 -0.242,0.145 -1.289,-0.743 -1.289,-0.743 0,0 0.256,0.409 0.464,0.583 0.208,0.174 0.313,0.326 0.313,0.326 0,0 -0.375,-0.263 -1.041,-0.208 -0.547,0.045 -1.247,0.083 -2.19,0.083 -0.943,0 -1.504,-0.125 -2.288,-0.555 0,0 -0.023,0.366 -0.361,0.444 -0.45,0.104 -1.615,-0.596 -1.615,-0.596 0,0 0.156,0.527 -0.395,0.638 -0.693,0.138 -1.47,-0.569 -1.47,-0.569 0,0 0.097,0.416 -0.222,0.555 -0.318,0.138 -1.192,-0.402 -1.317,-0.493 0,0 0.262,0.409 0.118,0.493 -0.166,0.096 -0.957,-0.167 -1.456,-0.589 0,0 0.929,1.448 1.677,2.273 0.749,0.826 1.457,1.428 1.991,1.31 l 0.049,0.111 c 0,0 -0.774,0.307 -2.303,-1.268 -0.512,-0.528 -1.016,-1.221 -1.351,-1.693 -0.565,-0.796 -0.923,-1.385 -0.923,-1.385 0,0 -0.401,-0.305 -0.804,-0.493 -0.402,-0.188 -0.707,-0.214 -0.797,0.326 -0.09,0.541 0.34,1.304 1.054,1.172 0,0 -0.195,-0.332 0.11,-0.43 0.306,-0.097 0.445,0.219 0.43,0.388 -0.034,0.388 -0.746,0.381 -1.15,0.16 -0.8,-0.438 -1.296,-1.593 -0.707,-2.045 0.54,-0.416 1.545,0.444 1.545,0.444 0,0 -1.615,-2.412 -2.905,-3.592 -1.954,-1.789 -4.436,-3.48 -4.436,-3.48 l 0.173,0 c 0,0 1.272,0.86 1.464,1.003 0.454,0.341 1.481,1.102 2.162,1.659 0.749,0.614 1.599,1.345 2.262,2.134 1.371,1.63 2.355,3.205 2.355,3.205 0,0 0.792,0.514 1.04,0.415 0.139,-0.055 -0.908,-1.712 -1.38,-1.948 0,0 0.138,-0.09 0.492,0.111 0.354,0.201 0.618,0.493 0.846,0.845 0.229,0.355 0.885,1.079 1.318,0.791 0.394,-0.263 -0.146,-1.622 -0.805,-1.435 0,0 0.209,0.347 0.014,0.485 -0.194,0.14 -0.388,0.007 -0.499,-0.27 -0.111,-0.277 0.007,-0.652 0.457,-0.554 0.451,0.097 1.241,0.582 1.464,1.525 0,0 0.866,0.569 1.213,0.381 0.347,-0.187 0.111,-1.788 -0.658,-1.56 0,0 0.287,0.497 0.006,0.637 -0.346,0.174 -0.714,-0.506 -0.409,-0.804 0.305,-0.297 0.915,-0.076 1.297,0.375 0.381,0.45 0.429,0.714 0.45,0.964 0,0 1.072,0.695 1.339,0.291 0.2,-0.305 -0.34,-1.213 -1.235,-1.788 l 0.32,0.006 c 0,0 0.553,0.416 0.942,0.194 0.388,-0.221 0.162,-1.417 -0.471,-2.045 -1.359,-1.345 -3.758,-2.44 -3.758,-2.44 l 0.138,0 c 0,0 2.854,1.181 4.008,2.44 0.915,0.998 0.956,2.136 0.693,2.399 -0.243,0.243 -0.86,0.041 -0.86,0.041 0,0 0.61,0.5 0.832,1.075 0,0 0.562,0.375 1.512,0.312 0,0 -1.473,-0.963 -0.992,-1.74 0.485,-0.784 1.747,0.374 1.747,0.374 0,0 -0.09,-0.506 0.361,-0.575 0.45,-0.07 1.061,0.415 1.061,0.415 0,0 -1.097,-2.254 -3.203,-4.256 -2.483,-2.357 -4.507,-3.508 -4.507,-3.508 l 0.195,0 c 0,0 2.246,1.331 4.686,3.647 2.44,2.316 3.772,5.033 3.772,5.033 0,0 0.715,0.676 0.956,0.568 0.187,-0.083 -0.16,-0.866 -0.256,-1.026 -0.098,-0.159 -0.785,-1.67 -2.101,-3.314 -2.176,-2.717 -4.382,-4.215 -4.382,-4.215 l 0.195,0 c 0,0 2.572,1.866 4.311,3.98 1.514,1.839 2.455,3.744 2.455,3.744 0,0 0.686,0.825 1.095,0.803 0.409,-0.02 0.61,-0.304 0.492,-0.811 -0.117,-0.506 -0.464,-0.79 -0.859,-0.755 0,0 0.257,0.264 -0.055,0.457 -0.256,0.159 -0.636,-0.308 -0.486,-0.561 0.202,-0.34 0.843,-0.305 1.308,0.131 0.465,0.437 0.564,0.701 0.633,1.103 0,0 0.838,0.76 1.317,0.422 0.491,-0.348 -0.131,-1.656 -0.72,-1.593 0,0 0.416,0.294 0.103,0.547 -0.294,0.238 -0.741,-0.326 -0.485,-0.665 0.256,-0.34 0.835,-0.115 1.13,0.128 0.389,0.319 0.554,0.647 0.666,1.05 0,0 0.811,0.652 1.012,0.547 0.201,-0.104 -0.208,-1.184 -0.957,-2.038 0,0 0.312,0.167 0.5,0.228 0.186,0.064 0.277,0.182 0.353,0.376 0.076,0.193 0.266,0.536 0.266,0.536 0,0 0.817,1.043 1.453,0.878 0.402,-0.104 0.041,-1.643 -0.617,-1.581 0,0 0.278,0.326 0.014,0.486 -0.264,0.16 -0.818,-0.39 -0.457,-0.659 0.36,-0.271 1.039,0.013 1.351,0.416 0.312,0.403 0.403,0.908 0.403,0.908 0,0 0.747,0.583 0.984,0.499 0.236,-0.083 -0.339,-1.317 -0.554,-1.719 -0.216,-0.402 -0.79,-1.545 -1.928,-2.863 -1.484,-1.719 -2.745,-2.773 -2.745,-2.773 l 0.221,0 c 0,0 1.732,1.593 2.704,2.69 1.415,1.595 1.858,2.522 1.858,2.522 z m -11.535,1.016 c 0,0 -0.93,-0.74 -1.153,-0.245 -0.251,0.555 0.258,1.229 0.794,1.398 0,0 0.658,-0.081 1.14,-0.054 0,0 -0.706,-0.543 -0.781,-1.099 z m 2.052,0.802 c -0.121,-0.235 -0.279,-0.587 -0.518,-0.822 -0.264,-0.259 -0.601,-0.37 -0.855,-0.292 -0.207,0.062 -0.167,0.446 -0.047,0.759 0.139,0.365 0.448,0.652 0.448,0.652 0,0 0.241,0.049 0.495,0.011 0.294,-0.046 0.526,-0.031 0.678,0.023 0,0 -0.097,-0.131 -0.201,-0.331 z m 12.332,-0.008 c 0,0 0.76,0.69 1.048,0.25 0.423,-0.649 -0.666,-1.407 -0.666,-1.407 -0.652,-0.069 -1.234,0.083 -1.234,0.083 0.852,0.652 0.852,1.074 0.852,1.074 z m -1.839,-0.255 c 0.446,0.495 1.075,0.758 1.271,0.546 0.528,-0.571 -0.603,-1.372 -0.603,-1.372 -0.597,0.076 -1.456,-0.354 -1.456,-0.354 0.095,0.265 0.417,0.767 0.788,1.18 z" /></g><g
         transform="matrix(3.5961261,0,0,3.5961261,-42.305698,-218.40281)"
         id="g2719"><path
           inkscape:connector-curvature="0"
           id="path2721"
           style="fill:#000000;fill-opacity:1;fill-rule:evenodd;stroke:none"
           d="m 55.91,99.888 -0.361,-0.104 c -0.422,-0.687 -2.253,-0.36 -2.253,-0.36 0.423,0.769 1.304,1.712 1.852,2.128 0.547,0.416 1.102,0.526 1.469,0.277 0.367,-0.25 0.32,-0.617 0.194,-0.776 -0.125,-0.16 -0.381,-0.354 -0.699,-0.215 -0.321,0.138 -0.224,0.367 -0.224,0.367 0.176,-0.228 0.37,-0.13 0.495,0.011 0.094,0.106 0.179,0.301 0.02,0.447 -0.407,0.37 -1.332,-0.576 -0.507,-1.088 0.408,-0.255 0.893,-0.013 1.198,0.383 0.228,0.295 0.401,0.968 0.022,1.315 -0.638,0.582 -1.782,-0.34 -1.782,-0.34 -0.471,0.416 -1.011,0.382 -1.685,-0.36 -0.74,-0.818 -1.413,-2.004 -1.413,-2.004 -1.005,0.146 -1.373,-0.035 -1.838,-0.208 -0.464,-0.174 -0.984,-0.076 -1.692,0.063 -0.706,0.138 -1.288,0.104 -1.288,0.104 0.616,0.991 1.463,1.746 1.941,2.114 0.477,0.368 0.999,0.521 1.318,0.369 0.319,-0.153 0.556,-0.563 0.156,-0.892 -0.333,-0.273 -0.753,0.121 -0.753,0.121 0.457,-0.021 0.714,0.416 0.443,0.617 -0.27,0.201 -0.506,-0.035 -0.596,-0.166 -0.091,-0.132 -0.37,-0.546 0.055,-0.826 0.34,-0.223 0.844,-0.131 1.115,0.125 0.336,0.318 0.516,0.871 0.175,1.22 -0.422,0.433 -1.234,0.292 -2.225,-0.582 -0.992,-0.874 -1.88,-2.142 -1.88,-2.142 -0.838,-0.215 -1.615,-0.666 -1.615,-0.666 0,0 0.097,0.631 -0.395,0.659 -0.952,0.054 -1.879,-0.957 -1.879,-0.957 0.486,0.846 0.326,1.033 -0.083,0.86 -0.408,-0.174 -0.815,-0.431 -0.991,-0.582 -0.083,-0.072 -0.108,-0.131 -0.076,-0.16 0.051,-0.046 0.115,-0.018 0.185,0.042 0.148,0.129 0.571,0.396 0.674,0.291 0.111,-0.112 -0.194,-0.721 -0.499,-1.304 -0.305,-0.582 -0.832,-1.704 -3.134,-4.173 -2.301,-2.468 -4.02,-3.577 -4.02,-3.577 l 0.179,0 c 3.023,2.301 4.666,4.056 5.651,5.276 0.601,0.744 1.109,1.527 1.397,1.998 0.209,0.34 0.288,0.442 0.288,0.442 0.742,1.033 1.379,1.373 1.802,1.428 0.423,0.056 0.575,-0.274 0.25,-0.957 -0.266,-0.558 -0.666,-0.61 -0.666,-0.61 -0.026,0.445 -0.258,0.473 -0.458,0.349 -0.172,-0.108 -0.278,-0.377 -0.159,-0.515 0.215,-0.25 0.569,-0.291 1.144,0.146 0.576,0.437 0.755,1.137 0.755,1.137 1.193,0.748 2.101,0.471 2.101,0.471 -2.71,-1.29 -2.627,-2.739 -1.989,-3.376 0.637,-0.638 1.835,-0.634 2.612,-0.161 1.074,0.652 0.854,1.367 0.854,1.367 0.909,0.305 1.615,1.061 1.615,1.061 0,0 -0.208,-0.735 0.486,-0.777 0.845,-0.051 1.65,0.735 1.65,0.735 0,0 -1.027,-2.136 -2.593,-4.16 -0.793,-1.023 -1.552,-1.739 -2.135,-2.262 -0.721,-0.649 -1.179,-0.982 -1.179,-0.982 l 0.166,0 c 2.524,1.872 4.132,3.993 5.11,5.629 0.977,1.636 1.602,2.815 1.602,2.815 1.358,-0.084 2.093,0.915 2.093,0.915 z m -2.807,0.714 c 0.526,0.735 0.941,1.061 1.234,1.137 0.29,0.076 0.54,-0.187 0.54,-0.187 -0.714,-0.493 -1.781,-2.08 -1.781,-2.08 l -0.694,0.09 c 0,0 0.174,0.305 0.701,1.04 z m -2.948,-2.905 c -0.512,-0.434 -1.067,-0.615 -1.067,-0.615 0,0 0.009,0.421 -0.287,0.67 -0.365,0.31 -0.651,0.167 -0.841,-0.046 -0.189,-0.212 -0.244,-0.587 0.079,-0.822 0.323,-0.236 0.786,-0.097 0.786,-0.097 0.03,-0.403 -0.233,-0.701 -0.573,-0.881 -0.599,-0.317 -1.397,-0.373 -2.02,0.1 -0.783,0.594 -0.554,1.492 0.161,2.116 0.717,0.625 1.484,0.828 1.743,0.837 0.258,0.01 0.532,-0.12 1.008,-0.116 0.476,0.005 0.734,0.171 1.206,0.351 0.471,0.181 1.239,0.032 1.239,0.032 -0.292,-0.378 -0.92,-1.094 -1.434,-1.529 z m -1.354,-0.689 c -0.679,-0.05 -0.808,0.472 -0.698,0.583 0.111,0.111 0.264,0.093 0.445,-0.069 0.241,-0.219 0.253,-0.514 0.253,-0.514 z m 4.633,1.972 -0.297,-0.534 c 0,0 -1.254,-1.362 -1.761,-0.638 -0.424,0.603 0.596,1.4 0.596,1.4 0,0 0.818,-0.186 1.462,-0.228 z" /></g><g
         transform="matrix(3.5961261,0,0,3.5961261,-42.305698,-218.40281)"
         id="g2723"><path
           inkscape:connector-curvature="0"
           id="path2725"
           style="fill:#000000;fill-opacity:1;fill-rule:evenodd;stroke:none"
           d="m 54.863,97.517 c 0,0.104 -0.041,0.312 -0.263,0.312 -0.222,0 -0.354,-0.173 -0.354,-0.319 0,-0.145 0.104,-0.305 0.305,-0.305 0.194,0 0.312,0.208 0.312,0.312 z" /></g><g
         transform="matrix(3.5961261,0,0,3.5961261,-42.305698,-218.40281)"
         id="g2727"><path
           inkscape:connector-curvature="0"
           id="path2729"
           style="fill:#000000;fill-opacity:1;fill-rule:evenodd;stroke:none"
           d="m 44.425,100.175 c 0.054,-0.047 0.212,0.027 0.38,0.3 0.167,0.273 0.294,0.851 0.131,0.971 -0.131,0.096 -0.339,-0.129 -0.352,-0.221 -0.026,-0.185 0.182,-0.207 0.027,-0.644 -0.09,-0.249 -0.256,-0.345 -0.186,-0.406 z" /></g><g
         transform="matrix(3.5961261,0,0,3.5961261,-42.305698,-218.40281)"
         id="g2731"><path
           inkscape:connector-curvature="0"
           id="path2733"
           style="fill:#000000;fill-opacity:1;fill-rule:evenodd;stroke:none"
           d="m 45.051,100.449 c 0.134,-0.043 0.255,0.247 0.336,0.423 0.079,0.177 0.282,0.441 0.387,0.582 0.107,0.142 0.186,0.406 0.098,0.442 -0.088,0.035 -0.168,-0.045 -0.318,-0.212 -0.15,-0.167 -0.2,-0.465 -0.326,-0.777 -0.09,-0.22 -0.296,-0.42 -0.177,-0.458 z" /></g><g
         transform="matrix(3.5961261,0,0,3.5961261,-42.305698,-218.40281)"
         id="g2735"><path
           inkscape:connector-curvature="0"
           id="path2737"
           style="fill:#000000;fill-opacity:1;fill-rule:evenodd;stroke:none"
           d="m 45.528,100.801 c -0.115,-0.238 -0.132,-0.255 -0.177,-0.423 -0.045,-0.168 0.142,-0.212 0.213,0.027 0.045,0.152 0.282,0.432 0.432,0.502 0.181,0.086 0.423,0.345 0.212,0.459 -0.212,0.115 -0.565,-0.326 -0.68,-0.565 z" /></g><g
         transform="matrix(3.5961261,0,0,3.5961261,-42.305698,-218.40281)"
         id="g2739"><path
           inkscape:connector-curvature="0"
           id="path2741"
           style="fill:#000000;fill-opacity:1;fill-rule:evenodd;stroke:none"
           d="m 22.643,100.175 c 0.053,-0.047 0.211,0.027 0.379,0.3 0.168,0.273 0.294,0.851 0.132,0.971 -0.132,0.096 -0.34,-0.129 -0.353,-0.221 -0.026,-0.185 0.183,-0.207 0.027,-0.644 -0.09,-0.249 -0.257,-0.345 -0.185,-0.406 z" /></g><g
         transform="matrix(3.5961261,0,0,3.5961261,-42.305698,-218.40281)"
         id="g2743"><path
           inkscape:connector-curvature="0"
           id="path2745"
           style="fill:#000000;fill-opacity:1;fill-rule:evenodd;stroke:none"
           d="m 23.269,100.449 c 0.134,-0.043 0.256,0.247 0.336,0.423 0.078,0.177 0.282,0.441 0.388,0.582 0.105,0.142 0.185,0.406 0.097,0.442 -0.089,0.035 -0.168,-0.045 -0.318,-0.212 -0.15,-0.167 -0.2,-0.465 -0.327,-0.777 -0.089,-0.22 -0.295,-0.42 -0.176,-0.458 z" /></g><g
         transform="matrix(3.5961261,0,0,3.5961261,-42.305698,-218.40281)"
         id="g2747"><path
           inkscape:connector-curvature="0"
           id="path2749"
           style="fill:#000000;fill-opacity:1;fill-rule:evenodd;stroke:none"
           d="m 23.746,100.801 c -0.116,-0.238 -0.133,-0.255 -0.177,-0.423 -0.044,-0.168 0.141,-0.212 0.212,0.027 0.045,0.152 0.282,0.432 0.432,0.502 0.183,0.086 0.423,0.345 0.211,0.459 -0.211,0.115 -0.564,-0.326 -0.678,-0.565 z" /></g><g
         transform="matrix(3.5961261,0,0,3.5961261,-42.305698,-218.40281)"
         id="g2751"><path
           inkscape:connector-curvature="0"
           id="path2753"
           style="fill:#000000;fill-opacity:1;fill-rule:evenodd;stroke:none"
           d="m 15.471,100.175 c 0.054,-0.047 0.213,0.027 0.38,0.3 0.168,0.273 0.295,0.851 0.132,0.971 -0.132,0.096 -0.339,-0.129 -0.353,-0.221 -0.026,-0.185 0.183,-0.207 0.027,-0.644 -0.089,-0.249 -0.256,-0.345 -0.186,-0.406 z" /></g><g
         transform="matrix(3.5961261,0,0,3.5961261,-42.305698,-218.40281)"
         id="g2755"><path
           inkscape:connector-curvature="0"
           id="path2757"
           style="fill:#000000;fill-opacity:1;fill-rule:evenodd;stroke:none"
           d="m 16.098,100.449 c 0.134,-0.043 0.256,0.247 0.336,0.423 0.079,0.177 0.282,0.441 0.387,0.582 0.106,0.142 0.186,0.406 0.098,0.442 -0.089,0.035 -0.168,-0.045 -0.318,-0.212 -0.15,-0.167 -0.199,-0.465 -0.326,-0.777 -0.09,-0.22 -0.296,-0.42 -0.177,-0.458 z" /></g><g
         transform="matrix(3.5961261,0,0,3.5961261,-42.305698,-218.40281)"
         id="g2759"><path
           inkscape:connector-curvature="0"
           id="path2761"
           style="fill:#000000;fill-opacity:1;fill-rule:evenodd;stroke:none"
           d="m 16.575,100.801 c -0.115,-0.238 -0.133,-0.255 -0.177,-0.423 -0.044,-0.168 0.141,-0.212 0.212,0.027 0.045,0.152 0.282,0.432 0.432,0.502 0.182,0.086 0.424,0.345 0.212,0.459 -0.212,0.115 -0.565,-0.326 -0.679,-0.565 z" /></g><g
         transform="matrix(3.5961261,0,0,3.5961261,-42.305698,-218.40281)"
         id="g2763"><path
           inkscape:connector-curvature="0"
           id="path2765"
           style="fill:#000000;fill-opacity:1;fill-rule:evenodd;stroke:none"
           d="m 60.749,100.175 c 0.054,-0.047 0.212,0.027 0.379,0.3 0.168,0.273 0.296,0.851 0.133,0.971 -0.133,0.096 -0.341,-0.129 -0.353,-0.221 -0.026,-0.185 0.182,-0.207 0.027,-0.644 -0.089,-0.249 -0.256,-0.345 -0.186,-0.406 z" /></g><g
         transform="matrix(3.5961261,0,0,3.5961261,-42.305698,-218.40281)"
         id="g2767"><path
           inkscape:connector-curvature="0"
           id="path2769"
           style="fill:#000000;fill-opacity:1;fill-rule:evenodd;stroke:none"
           d="m 61.376,100.449 c 0.133,-0.043 0.256,0.247 0.334,0.423 0.08,0.177 0.283,0.441 0.389,0.582 0.106,0.142 0.185,0.406 0.098,0.442 -0.089,0.035 -0.168,-0.045 -0.319,-0.212 -0.15,-0.167 -0.199,-0.465 -0.325,-0.777 -0.09,-0.22 -0.297,-0.42 -0.177,-0.458 z" /></g><g
         transform="matrix(3.5961261,0,0,3.5961261,-42.305698,-218.40281)"
         id="g2771"><path
           inkscape:connector-curvature="0"
           id="path2773"
           style="fill:#000000;fill-opacity:1;fill-rule:evenodd;stroke:none"
           d="m 61.852,100.801 c -0.115,-0.238 -0.132,-0.255 -0.177,-0.423 -0.043,-0.168 0.142,-0.212 0.212,0.027 0.045,0.152 0.282,0.432 0.433,0.502 0.181,0.086 0.423,0.345 0.211,0.459 -0.211,0.115 -0.565,-0.326 -0.679,-0.565 z" /></g><g
         transform="matrix(3.5961261,0,0,3.5961261,-42.305698,-218.40281)"
         id="g2775"><path
           inkscape:connector-curvature="0"
           id="path2777"
           style="fill:#000000;fill-opacity:1;fill-rule:evenodd;stroke:none"
           d="m 67.848,100.175 c 0.054,-0.047 0.212,0.027 0.38,0.3 0.167,0.273 0.294,0.851 0.132,0.971 -0.132,0.096 -0.34,-0.129 -0.353,-0.221 -0.026,-0.185 0.182,-0.207 0.026,-0.644 -0.087,-0.249 -0.255,-0.345 -0.185,-0.406 z" /></g><g
         transform="matrix(3.5961261,0,0,3.5961261,-42.305698,-218.40281)"
         id="g2779"><path
           inkscape:connector-curvature="0"
           id="path2781"
           style="fill:#000000;fill-opacity:1;fill-rule:evenodd;stroke:none"
           d="m 68.475,100.449 c 0.133,-0.043 0.256,0.247 0.335,0.423 0.08,0.177 0.282,0.441 0.388,0.582 0.106,0.142 0.186,0.406 0.098,0.442 -0.089,0.035 -0.169,-0.045 -0.318,-0.212 -0.15,-0.167 -0.201,-0.465 -0.327,-0.777 -0.09,-0.22 -0.295,-0.42 -0.176,-0.458 z" /></g><g
         transform="matrix(3.5961261,0,0,3.5961261,-42.305698,-218.40281)"
         id="g2783"><path
           inkscape:connector-curvature="0"
           id="path2785"
           style="fill:#000000;fill-opacity:1;fill-rule:evenodd;stroke:none"
           d="m 68.951,100.801 c -0.115,-0.238 -0.131,-0.255 -0.176,-0.423 -0.044,-0.168 0.141,-0.212 0.212,0.027 0.045,0.152 0.282,0.432 0.431,0.502 0.183,0.086 0.425,0.345 0.212,0.459 -0.212,0.115 -0.564,-0.326 -0.679,-0.565 z" /></g><g
         transform="matrix(3.5961261,0,0,3.5961261,-42.305698,-218.40281)"
         id="g2787"><path
           inkscape:connector-curvature="0"
           id="path2789"
           style="fill:#000000;fill-opacity:1;fill-rule:evenodd;stroke:none"
           d="m 85.937,100.175 c 0.054,-0.047 0.212,0.027 0.38,0.3 0.167,0.273 0.294,0.851 0.132,0.971 -0.132,0.096 -0.339,-0.129 -0.353,-0.221 -0.027,-0.185 0.182,-0.207 0.027,-0.644 -0.089,-0.249 -0.256,-0.345 -0.186,-0.406 z" /></g><g
         transform="matrix(3.5961261,0,0,3.5961261,-42.305698,-218.40281)"
         id="g2791"><path
           inkscape:connector-curvature="0"
           id="path2793"
           style="fill:#000000;fill-opacity:1;fill-rule:evenodd;stroke:none"
           d="m 86.565,100.449 c 0.132,-0.043 0.255,0.247 0.334,0.423 0.08,0.177 0.283,0.441 0.388,0.582 0.106,0.142 0.185,0.406 0.097,0.442 -0.088,0.035 -0.168,-0.045 -0.317,-0.212 -0.15,-0.167 -0.2,-0.465 -0.327,-0.777 -0.089,-0.22 -0.296,-0.42 -0.175,-0.458 z" /></g><g
         transform="matrix(3.5961261,0,0,3.5961261,-42.305698,-218.40281)"
         id="g2795"><path
           inkscape:connector-curvature="0"
           id="path2797"
           style="fill:#000000;fill-opacity:1;fill-rule:evenodd;stroke:none"
           d="m 87.04,100.801 c -0.115,-0.238 -0.132,-0.255 -0.177,-0.423 -0.043,-0.168 0.142,-0.212 0.213,0.027 0.045,0.152 0.282,0.432 0.432,0.502 0.181,0.086 0.423,0.345 0.212,0.459 -0.212,0.115 -0.565,-0.326 -0.68,-0.565 z" /></g><g
         transform="matrix(3.5961261,0,0,3.5961261,-42.305698,-218.40281)"
         id="g2799"><path
           inkscape:connector-curvature="0"
           id="path2801"
           style="fill:#000000;fill-opacity:1;fill-rule:evenodd;stroke:none"
           d="m 93.473,99.702 c -0.285,-0.795 -1.498,-0.535 -2.463,-0.341 -0.963,0.194 -1.789,0.236 -1.789,0.236 0.791,1.13 1.512,1.754 2.22,2.197 0.707,0.444 1.019,0.298 1.198,0.181 0.181,-0.118 0.353,-0.357 0.222,-0.68 -0.095,-0.236 -0.401,-0.388 -0.68,-0.277 -0.276,0.111 -0.145,0.325 -0.145,0.325 0.479,-0.2 0.589,0.292 0.388,0.451 -0.201,0.16 -0.437,0.035 -0.547,-0.082 -0.111,-0.119 -0.485,-0.61 0.014,-0.916 0.566,-0.346 0.992,0.049 1.179,0.249 0.186,0.202 0.568,0.895 0.034,1.346 -0.533,0.45 -1.407,-0.055 -2.26,-0.749 -0.852,-0.694 -1.88,-2.038 -1.88,-2.038 -1.157,-0.084 -2.037,-0.548 -2.037,-0.548 0,0 0.028,0.589 -0.471,0.555 -0.838,-0.059 -1.733,-0.847 -1.733,-0.847 0.172,0.333 0.353,0.875 0.069,0.881 -0.284,0.007 -1.373,-0.748 -1.373,-0.748 0,0 0.159,0.637 -0.506,0.693 -0.666,0.055 -1.248,-0.443 -1.248,-0.443 0.014,0.124 -0.048,0.436 -0.582,0.464 -0.535,0.028 -1.553,-0.756 -1.553,-0.756 0.084,0.153 0.284,0.686 0.084,0.735 -0.344,0.083 -1.444,-0.666 -1.444,-0.666 0.188,0.424 0.396,0.652 0.396,0.652 -2.94,0.534 -4.812,-0.652 -4.812,-0.652 0.208,0.375 0.639,0.86 0.639,0.86 -0.263,0.013 -0.242,-0.208 -0.833,-0.264 -0.589,-0.055 -1.566,0.125 -2.69,0.042 -1.122,-0.083 -2.169,-0.7 -2.169,-0.7 0.048,0.124 0.097,0.693 -0.319,0.672 -0.416,-0.021 -1.63,-0.79 -1.63,-0.79 0,0 0.122,0.616 -0.27,0.776 -0.482,0.196 -1.415,-0.506 -1.415,-0.506 0,0 -0.02,0.465 -0.366,0.548 -0.6,0.144 -1.429,-0.665 -1.429,-0.665 0,0 0.333,0.568 0.111,0.672 -0.222,0.104 -0.804,-0.347 -0.804,-0.347 1.193,1.983 1.386,2.302 1.969,2.829 0.604,0.546 1.082,0.457 1.082,0.457 l 0.082,0.14 c -0.801,-0.005 -1.622,-0.634 -2.201,-1.416 -1.016,-1.376 -1.819,-2.717 -1.819,-2.717 -1.026,-0.943 -1.581,-0.874 -1.816,-0.776 -0.236,0.097 -0.389,0.79 -0.043,1.192 0.398,0.46 0.82,0.263 0.82,0.263 0,0 -0.204,-0.277 0.007,-0.394 0.106,-0.061 0.283,-0.046 0.431,0.103 0.149,0.149 0.169,0.414 -0.078,0.596 -0.378,0.277 -1.272,-0.241 -1.62,-0.771 -0.346,-0.531 -0.352,-1.144 -0.052,-1.384 0.623,-0.499 2.101,0.769 2.101,0.769 -0.568,-0.929 -1.581,-2.829 -3.535,-4.936 -1.79,-1.928 -3.232,-2.857 -3.232,-2.857 l 0.168,0 c 0.835,0.481 2.03,1.61 3.307,2.851 1.059,1.031 1.969,2.169 2.612,3.168 0.824,1.276 1.422,2.253 1.574,2.425 0.152,0.174 0.493,0.396 0.563,0.32 0.068,-0.076 -0.042,-0.375 -0.362,-0.957 -0.319,-0.582 -0.665,-0.943 -0.665,-0.943 0,0 0.568,0.115 0.869,0.71 0.585,1.152 1.49,1.311 1.627,1.162 0.152,-0.167 0.221,-0.541 -0.084,-1.068 -0.37,-0.64 -0.679,-0.443 -0.679,-0.443 0,0 0.375,0.249 0.125,0.499 -0.404,0.404 -0.795,-0.45 -0.541,-0.652 0.38,-0.299 0.763,-0.167 1.248,0.292 0.486,0.457 0.61,1.039 0.61,1.039 0.901,0.666 1.217,0.317 1.096,-0.443 -0.102,-0.635 -0.541,-0.708 -0.541,-0.708 0,0 0.139,0.167 -0.111,0.347 -0.348,0.251 -0.68,-0.305 -0.471,-0.554 0.176,-0.212 0.457,-0.278 1.026,0.194 0.568,0.472 0.624,0.915 0.624,0.915 0,0 1.385,0.859 1.47,0.43 0.127,-0.663 -1.29,-1.733 -1.29,-1.733 l 0.333,0 c 0.194,0.124 0.54,0.208 0.706,0.152 0.166,-0.056 1.002,-0.638 -0.541,-2.33 -1.827,-2.006 -3.546,-3.175 -3.546,-3.175 l 0.205,0 c 3.341,2.397 4.826,4.007 4.77,5.297 -0.041,0.958 -1.165,0.444 -1.165,0.444 0.693,0.54 1.04,1.136 1.04,1.136 1.123,0.485 1.788,0.472 1.788,0.472 0,0 -1.344,-0.901 -1.08,-1.595 0.297,-0.782 1.635,0.028 1.635,0.028 0.333,-0.901 1.733,0.139 1.733,0.139 0,0 -0.956,-1.72 -2.356,-3.564 -1.697,-2.233 -4.077,-3.813 -4.077,-3.813 l 0.139,0 c 0.777,0.596 2.51,1.761 4.201,3.842 1.692,2.079 2.981,4.457 2.981,4.457 0.715,0.382 1.359,0.499 1.359,0.499 0,0 -1.318,-0.964 -0.991,-1.664 0.326,-0.7 1.615,0.16 1.615,0.16 0.311,-0.825 1.38,-0.084 1.38,-0.084 0,0 -1.151,-1.746 -2.42,-3.105 -2.249,-2.409 -4.881,-4.174 -4.881,-4.174 l 0.181,0 c 0,0 3.022,2.037 5.185,4.326 1.9,2.011 2.933,3.952 2.933,3.952 0.485,0.353 1.026,0.673 1.122,0.576 0.097,-0.098 -0.048,-0.452 -0.283,-0.854 -0.236,-0.402 -1.04,-1.788 -2.843,-3.979 -1.802,-2.191 -3.633,-3.591 -3.633,-3.591 l 0.153,0 c 0,0 1.595,1.248 3.411,3.189 1.816,1.941 2.475,3.071 2.475,3.071 0,0 0.367,0.303 0.895,0.312 0.831,0.014 1.503,-0.414 2.426,-0.242 1.548,0.287 1.83,0.79 1.83,0.79 -1.04,-0.52 -1.442,-0.382 -1.442,-0.382 0.991,0.556 1.324,1.283 1.324,1.283 0.423,0.333 0.86,0.534 0.992,0.416 0.131,-0.117 -0.241,-0.89 -0.581,-1.455 -0.342,-0.564 -1.459,-2.442 -3.021,-4.123 -2.101,-2.258 -3.533,-3.269 -3.533,-3.269 l 0.157,0 c 0,0 2.989,2.349 4.715,4.491 1.472,1.825 2.404,3.532 2.404,3.532 0.88,0.932 1.536,0.828 1.654,0.722 0.119,-0.105 0.369,-0.512 -0.143,-1.089 -0.512,-0.578 -0.763,-0.29 -0.763,-0.29 0,0 0.039,0.184 -0.078,0.329 -0.188,0.23 -0.79,-0.199 -0.447,-0.617 0.319,-0.389 0.893,-0.092 1.458,0.368 0.564,0.459 0.696,1.102 0.696,1.102 1.457,0.723 2.601,0.303 2.601,0.303 -2.312,-0.762 -2.785,-2.325 -2.588,-3.087 0.197,-0.76 1.353,-1.089 2.482,-0.748 1.131,0.342 1.655,1.182 1.59,1.681 -0.067,0.499 -0.657,0.814 -1.235,0.669 -0.578,-0.144 -0.631,-0.84 -0.197,-0.827 0.434,0.013 0.342,0.551 0.342,0.551 0.499,0.211 1.09,-0.472 0.538,-1.181 -0.553,-0.709 -1.734,-0.709 -2.443,-0.381 -0.709,0.329 -1.077,1.143 -0.065,2.193 0.973,1.01 2.183,1.009 2.183,1.009 0,0 1.31,-0.323 1.989,-0.229 1.35,0.184 1.819,1.022 1.819,1.022 L 93.473,99.702 Z M 71.01,97.829 c 0,0 -0.873,-0.468 -1.048,-0.062 -0.165,0.387 0.326,1.282 1.145,1.441 0,0 0.513,-0.014 0.942,-0.055 0,0 -0.908,-0.679 -1.039,-1.324 z m 1.892,0.228 c 0,0 -1.012,-0.574 -1.317,-0.235 -0.262,0.291 0.437,1.164 0.818,1.317 0,0 0.624,-0.028 1.262,0.167 0,0 -0.311,-0.458 -0.763,-1.249 z m 2.71,-0.158 c 0,0 -0.813,-0.461 -1.046,-0.132 -0.201,0.284 0.125,1.137 0.873,1.42 0,0 0.686,0.098 1.172,0.063 0,0 -1.054,-0.735 -0.999,-1.351 z m 1.561,0.041 c 0,0 -0.704,-0.358 -0.999,-0.125 -0.29,0.229 0.229,1.074 0.763,1.407 0,0 0.52,0 0.97,-0.111 L 77.173,97.94 Z m 3.181,-0.333 c 0,0 -0.976,0.111 -1.656,-0.222 l 0.562,0.922 c 0,0 0.36,0.386 0.764,0.653 0.379,0.251 0.853,0.392 1.025,0.068 0.121,-0.232 0.012,-0.54 -0.131,-0.777 -0.214,-0.356 -0.564,-0.644 -0.564,-0.644 z m 1.421,-0.146 c 0,0 -0.588,0.056 -1.191,0.125 0,0 0.963,0.694 1.061,1.303 0,0 0.9,0.622 1.135,0.125 0.212,-0.443 -0.345,-1.269 -1.005,-1.553 z" /></g><g
         transform="matrix(3.5961261,0,0,3.5961261,-42.305698,-218.40281)"
         id="g2803"><path
           inkscape:connector-curvature="0"
           id="path2805"
           style="fill:#000000;fill-opacity:1;fill-rule:evenodd;stroke:none"
           d="m 81.783,99.957 c 0.839,-0.125 1.504,-0.041 1.809,0.111 0.305,0.153 0.721,0.707 0.402,0.721 -0.319,0.014 -0.325,-0.443 -0.325,-0.443 -0.632,-0.223 -0.956,-0.009 -2.046,0.09 -0.638,0.058 -1.143,-0.103 -1.483,-0.225 -0.689,-0.248 -0.812,-0.614 -0.812,-0.614 0.742,0.478 1.616,0.485 2.455,0.36 z" /></g><g
         transform="matrix(3.5961261,0,0,3.5961261,-42.305698,-218.40281)"
         id="g2807"><path
           inkscape:connector-curvature="0"
           id="path2809"
           style="fill:#000000;fill-opacity:1;fill-rule:evenodd;stroke:none"
           d="m 81.914,100.554 c 0.085,-0.021 0.347,0.166 0.431,0.332 0.083,0.167 0.381,0.465 0.519,0.562 0.139,0.097 0.244,0.222 0.084,0.228 -0.159,0.008 -0.444,-0.11 -0.541,-0.27 -0.098,-0.159 -0.258,-0.492 -0.368,-0.589 -0.18,-0.16 -0.208,-0.242 -0.125,-0.263 z" /></g><g
         transform="matrix(3.5961261,0,0,3.5961261,-355.53063,-267.22684)"
         id="g2811"><path
           inkscape:connector-curvature="0"
           id="path2813"
           style="fill:#000000;fill-opacity:1;fill-rule:evenodd;stroke:none"
           d="m 140.164,100.17 c 0.053,-0.047 0.212,0.026 0.379,0.299 0.167,0.274 0.295,0.852 0.133,0.97 -0.133,0.098 -0.341,-0.129 -0.354,-0.22 -0.026,-0.184 0.183,-0.206 0.027,-0.644 -0.089,-0.249 -0.256,-0.344 -0.185,-0.405 z" /></g><g
         transform="matrix(3.5961261,0,0,3.5961261,-355.53063,-267.22684)"
         id="g2815"><path
           inkscape:connector-curvature="0"
           id="path2817"
           style="fill:#000000;fill-opacity:1;fill-rule:evenodd;stroke:none"
           d="m 140.79,100.443 c 0.133,-0.042 0.256,0.247 0.335,0.424 0.08,0.176 0.283,0.441 0.389,0.582 0.105,0.141 0.185,0.406 0.097,0.441 -0.089,0.035 -0.168,-0.044 -0.318,-0.212 -0.15,-0.168 -0.201,-0.466 -0.327,-0.777 -0.089,-0.219 -0.296,-0.42 -0.176,-0.458 z" /></g><g
         transform="matrix(3.5961261,0,0,3.5961261,-355.53063,-267.22684)"
         id="g2819"><path
           inkscape:connector-curvature="0"
           id="path2821"
           style="fill:#000000;fill-opacity:1;fill-rule:evenodd;stroke:none"
           d="m 141.266,100.796 c -0.115,-0.238 -0.132,-0.256 -0.176,-0.424 -0.044,-0.167 0.141,-0.211 0.211,0.027 0.046,0.152 0.282,0.432 0.433,0.502 0.182,0.086 0.423,0.345 0.212,0.459 -0.212,0.115 -0.566,-0.325 -0.68,-0.564 z" /></g><g
         transform="matrix(3.5961261,0,0,3.5961261,-355.53063,-267.22684)"
         id="g2823"><path
           inkscape:connector-curvature="0"
           id="path2825"
           style="fill:#000000;fill-opacity:1;fill-rule:evenodd;stroke:none"
           d="m 175.618,100.17 c 0.055,-0.047 0.213,0.026 0.381,0.299 0.168,0.274 0.295,0.852 0.132,0.97 -0.132,0.098 -0.34,-0.129 -0.353,-0.22 -0.026,-0.184 0.182,-0.206 0.026,-0.644 -0.089,-0.249 -0.256,-0.344 -0.186,-0.405 z" /></g><g
         transform="matrix(3.5961261,0,0,3.5961261,-355.53063,-267.22684)"
         id="g2827"><path
           inkscape:connector-curvature="0"
           id="path2829"
           style="fill:#000000;fill-opacity:1;fill-rule:evenodd;stroke:none"
           d="m 176.246,100.443 c 0.133,-0.042 0.255,0.247 0.335,0.424 0.08,0.176 0.283,0.441 0.388,0.582 0.106,0.141 0.185,0.406 0.098,0.441 -0.089,0.035 -0.168,-0.044 -0.319,-0.212 -0.149,-0.168 -0.199,-0.466 -0.326,-0.777 -0.089,-0.219 -0.295,-0.42 -0.176,-0.458 z" /></g><g
         transform="matrix(3.5961261,0,0,3.5961261,-355.53063,-267.22684)"
         id="g2831"><path
           inkscape:connector-curvature="0"
           id="path2833"
           style="fill:#000000;fill-opacity:1;fill-rule:evenodd;stroke:none"
           d="m 176.722,100.796 c -0.115,-0.238 -0.133,-0.256 -0.177,-0.424 -0.044,-0.167 0.142,-0.211 0.213,0.027 0.045,0.152 0.283,0.432 0.432,0.502 0.182,0.086 0.423,0.345 0.212,0.459 -0.212,0.115 -0.565,-0.325 -0.68,-0.564 z" /></g><g
         transform="matrix(3.5961261,0,0,3.5961261,-355.53063,-267.22684)"
         id="g2835"><path
           inkscape:connector-curvature="0"
           id="path2837"
           style="fill:#000000;fill-opacity:1;fill-rule:evenodd;stroke:none"
           d="m 120.678,100.17 c 0.054,-0.047 0.212,0.026 0.38,0.299 0.167,0.274 0.295,0.852 0.132,0.97 -0.132,0.098 -0.339,-0.129 -0.353,-0.22 -0.026,-0.184 0.183,-0.206 0.027,-0.644 -0.09,-0.249 -0.257,-0.344 -0.186,-0.405 z" /></g><g
         transform="matrix(3.5961261,0,0,3.5961261,-355.53063,-267.22684)"
         id="g2839"><path
           inkscape:connector-curvature="0"
           id="path2841"
           style="fill:#000000;fill-opacity:1;fill-rule:evenodd;stroke:none"
           d="m 121.304,100.443 c 0.134,-0.042 0.256,0.247 0.335,0.424 0.08,0.176 0.283,0.441 0.389,0.582 0.106,0.141 0.185,0.406 0.097,0.441 -0.089,0.035 -0.168,-0.044 -0.318,-0.212 -0.15,-0.168 -0.2,-0.466 -0.325,-0.777 -0.09,-0.219 -0.297,-0.42 -0.178,-0.458 z" /></g><g
         transform="matrix(3.5961261,0,0,3.5961261,-355.53063,-267.22684)"
         id="g2843"><path
           inkscape:connector-curvature="0"
           id="path2845"
           style="fill:#000000;fill-opacity:1;fill-rule:evenodd;stroke:none"
           d="m 121.781,100.796 c -0.115,-0.238 -0.132,-0.256 -0.177,-0.424 -0.044,-0.167 0.141,-0.211 0.212,0.027 0.045,0.152 0.283,0.432 0.433,0.502 0.182,0.086 0.423,0.345 0.212,0.459 -0.212,0.115 -0.565,-0.325 -0.68,-0.564 z" /></g><g
         transform="matrix(3.5961261,0,0,3.5961261,-355.53063,-267.22684)"
         id="g2847"><path
           inkscape:connector-curvature="0"
           id="path2849"
           style="fill:#000000;fill-opacity:1;fill-rule:evenodd;stroke:none"
           d="m 117.19,100.17 c 0.054,-0.047 0.213,0.026 0.38,0.299 0.167,0.274 0.294,0.852 0.132,0.97 -0.132,0.098 -0.339,-0.129 -0.352,-0.22 -0.027,-0.184 0.181,-0.206 0.026,-0.644 -0.089,-0.249 -0.256,-0.344 -0.186,-0.405 z" /></g><g
         transform="matrix(3.5961261,0,0,3.5961261,-355.53063,-267.22684)"
         id="g2851"><path
           inkscape:connector-curvature="0"
           id="path2853"
           style="fill:#000000;fill-opacity:1;fill-rule:evenodd;stroke:none"
           d="m 117.817,100.443 c 0.133,-0.042 0.256,0.247 0.335,0.424 0.08,0.176 0.282,0.441 0.389,0.582 0.105,0.141 0.185,0.406 0.096,0.441 -0.088,0.035 -0.167,-0.044 -0.317,-0.212 -0.15,-0.168 -0.2,-0.466 -0.326,-0.777 -0.09,-0.219 -0.297,-0.42 -0.177,-0.458 z" /></g><g
         transform="matrix(3.5961261,0,0,3.5961261,-355.53063,-267.22684)"
         id="g2855"><path
           inkscape:connector-curvature="0"
           id="path2857"
           style="fill:#000000;fill-opacity:1;fill-rule:evenodd;stroke:none"
           d="m 118.293,100.796 c -0.114,-0.238 -0.133,-0.256 -0.176,-0.424 -0.044,-0.167 0.142,-0.211 0.212,0.027 0.045,0.152 0.282,0.432 0.432,0.502 0.182,0.086 0.423,0.345 0.212,0.459 -0.212,0.115 -0.565,-0.325 -0.68,-0.564 z" /></g><g
         transform="matrix(3.5961261,0,0,3.5961261,-355.53063,-267.22684)"
         id="g2859"><path
           inkscape:connector-curvature="0"
           id="path2861"
           style="fill:#000000;fill-opacity:1;fill-rule:evenodd;stroke:none"
           d="m 103.192,100.17 c 0.053,-0.047 0.212,0.026 0.379,0.299 0.168,0.274 0.296,0.852 0.133,0.97 -0.133,0.098 -0.34,-0.129 -0.354,-0.22 -0.025,-0.184 0.183,-0.206 0.028,-0.644 -0.089,-0.249 -0.256,-0.344 -0.186,-0.405 z" /></g><g
         transform="matrix(3.5961261,0,0,3.5961261,-355.53063,-267.22684)"
         id="g2863"><path
           inkscape:connector-curvature="0"
           id="path2865"
           style="fill:#000000;fill-opacity:1;fill-rule:evenodd;stroke:none"
           d="m 103.819,100.443 c 0.134,-0.042 0.255,0.247 0.335,0.424 0.08,0.176 0.283,0.441 0.389,0.582 0.106,0.141 0.185,0.406 0.097,0.441 -0.088,0.035 -0.168,-0.044 -0.318,-0.212 -0.151,-0.168 -0.2,-0.466 -0.326,-0.777 -0.091,-0.219 -0.296,-0.42 -0.177,-0.458 z" /></g><g
         transform="matrix(3.5961261,0,0,3.5961261,-355.53063,-267.22684)"
         id="g2867"><path
           inkscape:connector-curvature="0"
           id="path2869"
           style="fill:#000000;fill-opacity:1;fill-rule:evenodd;stroke:none"
           d="m 104.295,100.796 c -0.114,-0.238 -0.132,-0.256 -0.176,-0.424 -0.045,-0.167 0.141,-0.211 0.212,0.027 0.044,0.152 0.282,0.432 0.433,0.502 0.182,0.086 0.423,0.345 0.212,0.459 -0.212,0.115 -0.566,-0.325 -0.681,-0.564 z" /></g><g
         transform="matrix(3.5961261,0,0,3.5961261,-355.53063,-267.22684)"
         id="g2871"><path
           inkscape:connector-curvature="0"
           id="path2873"
           style="fill:#000000;fill-opacity:1;fill-rule:evenodd;stroke:none"
           d="m 96.254,100.17 c 0.054,-0.047 0.211,0.026 0.379,0.299 0.168,0.274 0.295,0.852 0.133,0.97 -0.133,0.098 -0.34,-0.129 -0.353,-0.22 -0.027,-0.184 0.182,-0.206 0.026,-0.644 -0.089,-0.249 -0.256,-0.344 -0.185,-0.405 z" /></g><g
         transform="matrix(3.5961261,0,0,3.5961261,-355.53063,-267.22684)"
         id="g2875"><path
           inkscape:connector-curvature="0"
           id="path2877"
           style="fill:#000000;fill-opacity:1;fill-rule:evenodd;stroke:none"
           d="m 96.88,100.443 c 0.134,-0.042 0.256,0.247 0.335,0.424 0.08,0.176 0.283,0.441 0.389,0.582 0.106,0.141 0.185,0.406 0.097,0.441 -0.089,0.035 -0.168,-0.044 -0.318,-0.212 -0.15,-0.168 -0.2,-0.466 -0.327,-0.777 -0.089,-0.219 -0.295,-0.42 -0.176,-0.458 z" /></g><g
         transform="matrix(3.5961261,0,0,3.5961261,-355.53063,-267.22684)"
         id="g2879"><path
           inkscape:connector-curvature="0"
           id="path2881"
           style="fill:#000000;fill-opacity:1;fill-rule:evenodd;stroke:none"
           d="m 97.356,100.796 c -0.114,-0.238 -0.132,-0.256 -0.176,-0.424 -0.044,-0.167 0.141,-0.211 0.212,0.027 0.045,0.152 0.282,0.432 0.432,0.502 0.182,0.086 0.424,0.345 0.212,0.459 -0.212,0.115 -0.564,-0.325 -0.68,-0.564 z" /></g><g
         transform="matrix(3.5961261,0,0,3.5961261,-355.53063,-267.22684)"
         id="g2883"><path
           inkscape:connector-curvature="0"
           id="path2885"
           style="fill:#000000;fill-opacity:1;fill-rule:evenodd;stroke:none"
           d="m 110.038,99.347 c 0,0 -0.095,-0.114 -0.818,-0.124 -0.957,-0.015 -3.577,0.582 -5.186,-0.596 0,0 0.124,0.596 -0.43,0.651 -0.243,0.024 -0.51,-0.128 -0.812,-0.291 -0.385,-0.208 -0.782,-0.444 -0.782,-0.444 0,0 0.083,0.485 -0.278,0.707 -0.361,0.222 -1.165,-0.36 -1.344,-0.554 0,0 0.054,0.415 -0.265,0.527 -0.319,0.111 -1.08,-0.32 -1.372,-0.569 0,0 0.249,0.485 0.042,0.569 -0.208,0.083 -0.929,-0.25 -1.373,-0.625 0,0 0.472,0.844 1.086,1.713 0.674,0.955 1.533,1.944 2.463,1.878 l 0.125,0.139 c 0,0 -0.957,0.347 -2.731,-1.789 0,0 -1.026,-1.345 -1.678,-2.565 0,0 -1.008,-0.942 -1.386,-0.512 -0.416,0.471 0.083,1.761 0.818,1.552 0,0 -0.173,-0.235 0.021,-0.374 0.193,-0.139 0.728,0.236 0.443,0.471 -0.284,0.236 -0.984,0.305 -1.622,-0.582 -0.637,-0.887 -0.243,-1.379 -0.021,-1.518 0.222,-0.139 0.714,-0.111 1.393,0.457 0,0 -1.268,-2.058 -2.863,-3.764 -1.594,-1.705 -3.827,-3.133 -3.827,-3.133 l 0.181,0 c 0,0 2.274,1.483 3.924,3.133 1.65,1.651 2.607,3.217 3.452,4.492 0,0 0.721,0.707 1.068,0.569 0.138,-0.055 -0.195,-0.555 -0.402,-0.901 -0.208,-0.347 -0.514,-0.86 -0.791,-1.013 0,0 0.292,-0.068 0.818,0.486 0,0 0.86,1.553 1.664,1.455 0.363,-0.043 0.272,-0.407 0.159,-0.798 -0.138,-0.473 -0.329,-0.808 -0.893,-0.81 0,0 0.29,0.389 -0.098,0.485 -0.388,0.098 -0.596,-0.624 -0.111,-0.748 0.486,-0.126 1.511,0.374 1.719,1.442 0,0 0.552,0.658 0.971,0.416 0.361,-0.208 0.111,-1.719 -0.54,-1.608 0,0 0.202,0.349 -0.056,0.471 -0.292,0.139 -0.765,-0.568 -0.167,-0.707 0.715,-0.166 1.457,0.887 1.471,1.414 0,0 0.41,0.218 0.814,0.438 0.311,0.168 0.597,0.15 0.655,-0.133 0.092,-0.452 -0.512,-1.331 -1.096,-1.761 l 0.195,0 c 0,0 0.776,0.707 1.165,0.249 0.388,-0.457 -0.014,-1.732 -1.65,-3.146 -1.636,-1.415 -2.275,-1.816 -3.079,-2.303 l 0.223,0 c 0,0 3.078,1.872 4.27,3.453 1.193,1.58 1.207,2.745 -0.153,2.468 0,0 0.444,0.347 0.61,0.873 0,0 0.556,0.43 1.928,0.514 0,0 -1.459,-0.84 -1.053,-1.692 0.401,-0.845 1.65,0.18 1.65,0.18 0,0 0.097,-0.97 1.414,-0.221 0,0 -0.61,-1.304 -3.689,-4.077 -2.256,-2.032 -4.436,-3.3 -4.436,-3.3 l 0.194,0 c 0,0 2.467,1.387 5.242,3.966 2.772,2.578 3.923,4.604 4.117,4.811 0.193,0.208 0.596,0.443 0.707,0.679 z m -3.536,-1.65 c 0,0 -0.915,-0.762 -1.151,-0.263 -0.384,0.813 0.944,1.567 0.944,1.567 0.429,0.027 1.331,-0.056 1.331,-0.056 -1.165,-0.609 -1.124,-1.248 -1.124,-1.248 z m 1.901,0.194 c 0,0 -0.997,-0.84 -1.291,-0.444 -0.498,0.675 0.805,1.484 0.805,1.484 0.735,-0.152 1.206,-0.041 1.206,-0.041 -0.346,-0.347 -0.72,-0.999 -0.72,-0.999 z" /></g><g
         transform="matrix(3.5961261,0,0,3.5961261,-355.53063,-267.22684)"
         id="g2887"><path
           inkscape:connector-curvature="0"
           id="path2889"
           style="fill:#000000;fill-opacity:1;fill-rule:evenodd;stroke:none"
           d="m 132.25,101.927 c -0.624,0.484 -1.885,-0.347 -2.412,-1.068 -0.527,-0.721 -1.067,-1.512 -1.067,-1.512 -2.483,-0.153 -2.968,-1.22 -2.968,-1.22 1.054,0.79 2.108,0.721 2.108,0.721 -0.403,-0.347 -0.486,-0.638 -1.124,-1.261 -0.637,-0.624 -1.205,-0.611 -1.205,-0.611 0.138,0.777 -0.818,1.096 -1.097,0.818 -0.243,-0.243 -0.248,-0.541 0.029,-0.79 0.276,-0.249 0.776,-0.221 0.776,-0.221 -0.166,-0.791 -0.957,-1.249 -2.219,-1.179 -1.261,0.069 -1.677,1.136 -0.817,2.163 0.859,1.025 2.066,1.095 2.066,1.095 0,0 0.913,-0.398 1.789,-0.014 0.789,0.346 0.762,0.791 0.762,0.791 l -0.444,-0.278 c -0.125,-0.485 -0.679,-0.347 -1.29,-0.222 -0.61,0.125 -1.4,0.222 -1.4,0.222 0.362,0.402 0.801,0.949 1.803,1.747 0.956,0.763 1.58,0.902 1.941,0.652 0.291,-0.202 0.347,-0.555 0.221,-0.735 -0.123,-0.18 -0.319,-0.432 -0.789,-0.305 -0.513,0.139 -0.237,0.527 -0.237,0.527 0.015,-0.153 0.389,-0.36 0.597,-0.07 0.259,0.364 -0.264,0.722 -0.666,0.361 -0.285,-0.256 -0.498,-0.707 -0.111,-0.984 0.389,-0.277 1.027,-0.084 1.276,0.194 0.191,0.212 0.68,0.901 0.139,1.303 -0.541,0.403 -1.401,0.111 -2.524,-0.804 -1.123,-0.915 -1.844,-1.9 -1.844,-1.9 -1.303,0.027 -2.135,-0.679 -2.135,-0.679 0,0 0.027,0.568 -0.237,0.596 -0.844,0.088 -1.801,-0.859 -1.801,-0.859 0,0 0.483,0.924 0.249,0.901 -0.79,-0.08 -2.038,-1.026 -2.038,-1.026 0,0 0.166,0.277 0.32,0.541 0.152,0.263 0.512,0.582 0.512,0.582 -0.319,-0.167 -0.541,-0.167 -1.623,-0.069 -1.081,0.097 -1.829,-0.597 -1.829,-0.597 0,0 0.207,0.51 -0.111,0.541 -0.387,0.038 -0.61,-0.073 -0.822,-0.202 -0.318,-0.195 -0.537,-0.436 -0.537,-0.436 0,0 0.72,0.43 0.943,0.194 0.261,-0.277 -0.569,-1.483 -0.569,-1.483 0,0 -0.319,-0.166 -0.416,-0.098 -0.299,0.212 0.139,1.928 -0.18,1.997 -0.232,0.05 -1.15,-0.61 -1.15,-0.61 0,0 0.054,0.499 -0.251,0.583 -0.596,0.162 -1.705,-0.916 -1.705,-0.916 1.372,2.662 1.885,3.191 2.814,3.869 1.29,0.942 2.08,0.652 2.08,0.652 l 0.208,0.222 c -0.596,0.332 -2.523,-0.666 -3.507,-1.595 -0.985,-0.929 -1.831,-2.676 -2.219,-3.522 -0.388,-0.846 -0.624,-0.998 -0.624,-0.998 0.568,0.028 0.639,0.538 1.206,1.081 0.638,0.611 1.206,0.86 1.4,0.735 0.134,-0.085 0.25,-0.61 -0.054,-1.123 -0.306,-0.512 -0.846,-0.402 -0.846,-0.402 0.429,0.43 -0.07,0.679 -0.36,0.291 -0.473,-0.63 0.762,-0.734 1.386,-0.083 0.624,0.652 0.485,1.109 0.485,1.109 l 0.388,0.236 c 0.513,0.319 0.417,-0.596 0.389,-1.303 -0.028,-0.707 0.72,-0.472 0.72,-0.472 0,0 -0.125,-0.388 -1.802,-2.274 -1.677,-1.885 -2.566,-2.371 -2.566,-2.371 l 0.167,0 c 0.86,0.499 2.413,1.844 3.73,3.398 1.317,1.552 1.789,2.87 1.789,2.87 0.541,0.401 1.261,0.29 1.261,0.29 -0.706,-0.456 -1.442,-1.214 -1.109,-1.746 0.347,-0.555 1.442,0.055 1.442,0.055 0,0 -0.443,-0.721 -1.636,-2.191 -1.193,-1.47 -4.021,-3.591 -4.021,-3.591 l 0.152,0 c 0,0 2.441,1.581 4.049,3.411 1.608,1.83 2.302,3.119 2.302,3.119 0.859,0.638 1.581,0.929 1.691,0.874 0.111,-0.056 -0.124,-0.485 -0.347,-0.915 -0.221,-0.43 -1.094,-2.399 -4.214,-5.088 -3.12,-2.69 -4.285,-3.204 -4.285,-3.204 l 0.319,0 c 0.721,0.43 2.759,1.761 4.937,3.731 2.176,1.968 2.481,2.648 2.814,3.147 0.333,0.499 0.569,1.206 1.123,1.691 0.413,0.362 1.054,0.735 1.248,0.624 0.194,-0.111 0.347,-0.707 0.083,-1.234 -0.278,-0.557 -0.846,-0.388 -0.846,-0.388 0,0 0.393,0.271 0.098,0.457 -0.382,0.241 -0.764,-0.471 -0.347,-0.665 0.37,-0.172 0.915,0.014 1.317,0.499 0.369,0.446 0.402,0.902 0.402,0.902 0.847,0.901 2.372,0.54 2.372,0.54 -1.72,-0.596 -2.87,-2.121 -2.358,-3.05 0.567,-1.028 2.358,-0.666 3.175,-0.235 0.879,0.461 0.971,1.123 0.971,1.123 0.79,0 1.497,0.79 1.497,0.79 0,0 -0.041,-0.555 0.416,-0.625 0.539,-0.081 1.123,0.403 1.123,0.403 -0.929,-1.387 -1.941,-2.593 -3.674,-4.298 -1.734,-1.707 -3.494,-2.774 -3.494,-2.774 l 0.18,0 c 0,0 2.274,1.442 3.619,2.732 1.345,1.29 2.509,2.565 3.203,3.605 1.173,1.759 1.65,2.163 1.65,2.163 0,0 0.592,-0.021 1.344,0.319 0.703,0.316 0.832,0.79 0.832,0.79 l -0.345,-0.139 c -0.189,-0.755 -1.943,-0.513 -1.943,-0.513 1.443,1.845 1.984,2.19 2.816,2.524 0.831,0.333 1.443,-0.404 1.067,-0.818 -0.233,-0.257 -0.512,-0.202 -0.695,-0.087 -0.132,0.084 -0.206,0.211 -0.206,0.211 0.333,-0.193 0.847,0.278 0.457,0.542 -0.388,0.263 -1.258,-0.482 -0.414,-0.999 0.789,-0.485 1.87,0.777 1.177,1.442 -0.693,0.665 -1.9,-0.124 -1.9,-0.124 z m -6.964,-4.936 c -0.056,-0.021 -0.303,0.043 -0.493,0.164 -0.204,0.13 -0.265,0.375 -0.212,0.437 0.092,0.107 0.306,0.034 0.479,-0.113 0.261,-0.221 0.226,-0.488 0.226,-0.488 z m -8.509,0.623 c 0,0 -1.04,-0.679 -1.193,-0.027 -0.152,0.651 0.68,1.178 0.915,1.303 0,0 0.5,-0.042 1.055,-0.042 l -0.777,-1.234 z m 12.035,0.069 c 0,0 -0.939,-0.727 -1.192,0 -0.209,0.597 0.692,1.193 0.692,1.193 0,0 0.417,0 0.681,-0.042 0.263,-0.042 0.637,-0.055 0.637,-0.055 0,0 -0.305,-0.361 -0.818,-1.096 z m 0.874,1.581 c 0,0 -0.458,0.056 -0.693,0.056 0,0 0.581,0.929 1.039,1.47 0.458,0.54 1.262,1.081 1.678,0.734 0,0 -0.541,-0.374 -2.024,-2.26 z" /></g><g
         transform="matrix(3.5961261,0,0,3.5961261,-355.53063,-267.22684)"
         id="g2891"><path
           inkscape:connector-curvature="0"
           id="path2893"
           style="fill:#000000;fill-opacity:1;fill-rule:evenodd;stroke:none"
           d="m 130.594,97.607 c -0.222,0 -0.354,-0.173 -0.354,-0.318 0,-0.147 0.104,-0.305 0.305,-0.305 0.195,0 0.312,0.208 0.312,0.311 0,0.104 -0.042,0.312 -0.263,0.312 z" /></g><g
         transform="matrix(3.5961261,0,0,3.5961261,-355.53063,-267.22684)"
         id="g2895"><path
           inkscape:connector-curvature="0"
           id="path2897"
           style="fill:#000000;fill-opacity:1;fill-rule:evenodd;stroke:none"
           d="m 150.248,99.292 c -0.625,0.416 -1.678,-0.652 -1.678,-0.652 0,0 0.305,0.624 0.194,0.707 -0.145,0.109 -0.54,-0.111 -0.54,-0.111 0.54,1.013 1.399,1.845 1.691,2.122 0.291,0.278 1.182,0.973 1.692,0.415 0.232,-0.253 0.222,-0.61 0.044,-0.777 -0.175,-0.16 -0.386,-0.233 -0.626,-0.082 -0.285,0.179 -0.208,0.375 -0.208,0.375 0.236,-0.195 0.761,0.124 0.526,0.471 -0.254,0.374 -1.288,-0.402 -0.61,-1.04 0.567,-0.531 1.747,0.333 1.317,1.192 -0.429,0.86 -1.455,0.277 -2.204,-0.304 -0.748,-0.583 -1.941,-2.51 -1.941,-2.51 l -0.986,-0.513 c 0,0 0.348,0.623 -0.123,0.749 -0.472,0.124 -1.443,-0.389 -1.443,-0.389 0,0 0.041,0.375 -0.36,0.416 -0.498,0.052 -1.497,-0.721 -1.497,-0.721 0,0 0.429,0.624 0.222,0.721 -0.442,0.206 -1.457,-0.582 -1.457,-0.582 0,0 1.179,1.76 2.192,2.787 1.012,1.025 1.483,0.776 1.483,0.776 l 0.222,0.209 c -0.319,0.18 -0.901,-0.07 -2.067,-1.013 -1.165,-0.943 -1.885,-2.228 -1.885,-2.228 -1.089,-0.244 -1.047,0.132 -2.918,0.109 -2.302,-0.028 -3.516,-1.122 -3.516,-1.122 2.067,0.874 2.719,0.676 2.719,0.676 0,0 -1.471,-0.999 -1.137,-1.72 0.367,-0.795 1.83,0.389 1.83,0.389 0.194,-1.137 1.51,-0.319 1.51,-0.319 0,0 -0.554,-0.998 -1.649,-2.149 -1.475,-1.549 -3.938,-2.912 -3.938,-2.912 l 0.222,0 c 0,0 2.718,1.484 4.021,2.843 1.303,1.359 2.634,3.286 2.634,3.286 0.485,0.374 0.971,0.596 1.054,0.554 0.083,-0.042 -0.138,-0.499 -0.291,-0.735 -0.153,-0.236 -1.65,-2.703 -3.744,-4.811 -2.094,-2.108 -4.493,-3.356 -4.493,-3.356 l 0.223,0 c 0,0 2.926,1.665 4.589,3.314 1.664,1.65 2.911,3.426 2.911,3.426 0.375,0.208 0.778,0.346 2.538,0.193 1.761,-0.152 2.496,0.707 2.496,0.707 -0.485,-0.388 -1.289,-0.249 -1.289,-0.249 0.471,0.36 0.734,0.832 0.734,0.832 0.583,0.346 1.331,0.679 1.4,0.568 0.07,-0.111 0.015,-0.429 -0.276,-0.985 -0.292,-0.554 -0.707,-0.928 -0.707,-0.928 0.707,0.097 1.206,1.192 1.206,1.192 0.527,0.556 1.06,0.964 1.34,0.877 0.329,-0.101 0.283,-0.756 0.101,-1.141 -0.346,-0.729 -0.873,-0.596 -0.873,-0.596 0.323,0.147 0.197,0.424 0.034,0.508 -0.125,0.063 -0.272,0.044 -0.423,-0.161 -0.162,-0.221 -0.138,-0.831 0.749,-0.54 0.888,0.291 1.61,1.816 0.985,2.232 z m -11.037,-1.428 c 0,0 -0.997,-0.791 -1.289,-0.181 -0.292,0.61 0.914,1.29 0.914,1.29 0,0 0.792,-0.097 1.263,-0.097 0,0 -0.763,-0.471 -0.888,-1.012 z m 1.872,0 c 0,0 -0.94,-0.782 -1.317,-0.139 -0.278,0.471 0.624,1.137 0.624,1.137 0,0 1.025,-0.028 1.525,0.139 l -0.832,-1.137 z m 3.092,-0.361 c 0,0 -1.068,-0.041 -1.665,-0.374 l 0.652,0.971 c 0,0 1.206,1.215 1.623,0.721 0.374,-0.444 -0.61,-1.318 -0.61,-1.318 z m 1.568,-0.069 c 0,0 -0.93,-0.014 -1.29,0.069 0,0 0.831,0.666 0.887,1.124 0,0 0.749,0.596 1.053,0.249 0.305,-0.347 -0.333,-1.151 -0.65,-1.442 z" /></g><g
         transform="matrix(3.5961261,0,0,3.5961261,-355.53063,-267.22684)"
         id="g2899"><path
           inkscape:connector-curvature="0"
           id="path2901"
           style="fill:#000000;fill-opacity:1;fill-rule:evenodd;stroke:none"
           d="m 152.522,96.353 c -0.818,0.568 -1.497,-0.458 -1.137,-0.749 0.361,-0.292 0.651,0.194 0.513,0.333 -0.138,0.138 -0.291,0.055 -0.291,0.055 0.153,0.637 1.303,-0.078 0.736,-0.68 -0.524,-0.553 -2.026,-0.18 -1.929,0.777 0.098,0.956 2.108,1.913 2.108,1.913 l 0.111,0.236 c -0.24,-0.167 -1.173,-0.713 -1.416,-0.39 -0.221,0.294 0.134,1.402 1,2.345 1.74,1.896 2.565,2.135 2.565,2.135 l 0.138,0.181 c -0.382,0.078 -2.459,-1.602 -3.449,-2.856 -0.488,-0.62 -0.669,-1.089 -0.752,-1.512 -0.194,-0.996 0.499,-0.763 0.499,-0.763 -0.652,-0.471 -2.039,-1.765 -0.79,-2.495 0.644,-0.376 1.486,-0.227 1.927,0.194 0.438,0.42 0.575,0.993 0.167,1.276 z" /></g><g
         transform="matrix(3.5961261,0,0,3.5961261,-355.53063,-267.22684)"
         id="g2903"><path
           inkscape:connector-curvature="0"
           id="path2905"
           style="fill:#000000;fill-opacity:1;fill-rule:evenodd;stroke:none"
           d="m 169.646,97.004 c 1.15,0.249 1.169,-0.018 2.093,0.138 0.902,0.153 1.235,0.736 1.235,0.736 -0.832,-0.583 -1.359,-0.375 -1.359,-0.375 0,0 1.442,1.414 0.763,1.831 -0.68,0.415 -2.08,-0.888 -2.08,-0.888 0,0 0.457,0.846 0.167,0.97 -0.293,0.126 -1.554,-0.845 -1.554,-0.845 0,0 0.332,0.679 -0.027,0.803 -0.692,0.241 -1.596,-0.443 -1.596,-0.443 0,0 0.042,0.43 -0.193,0.472 -0.306,0.054 -1.359,-0.582 -1.359,-0.582 0.193,0.402 0.429,0.61 0.429,0.61 -0.221,-0.084 -0.665,-0.028 -1.802,-0.015 -1.137,0.015 -1.996,-0.665 -1.996,-0.665 0,0 0.36,0.555 0.194,0.652 -0.323,0.188 -1.65,-0.624 -1.65,-0.624 0,0 0.859,1.636 1.761,2.579 1.043,1.091 1.678,1.067 1.678,1.067 l 0.055,0.139 c -1.096,-0.097 -2.358,-1.441 -2.871,-2.205 -0.513,-0.762 -1.47,-2.246 -1.47,-2.246 -0.725,-0.628 -1.185,-0.67 -1.392,-0.45 -0.244,0.262 -0.3,0.751 0.006,1.158 0.336,0.445 0.859,0.318 0.859,0.318 -0.346,-0.305 0.111,-0.873 0.445,-0.416 0.215,0.296 0.015,0.515 -0.13,0.627 -0.286,0.217 -0.942,0.03 -1.368,-0.405 -0.72,-0.735 -0.582,-1.358 -0.582,-1.358 -0.555,-0.583 -1.636,-0.292 -1.636,-0.292 0,0 0.596,0.554 0.748,0.707 0.153,0.152 0.666,0.721 0.376,1.179 -0.435,0.681 -1.582,-0.278 -1.582,-0.278 0,0.68 -0.61,0.431 -0.61,0.431 0.956,1.33 1.719,1.955 2.024,2.163 0.304,0.208 1.274,0.735 1.678,0.276 0.445,-0.502 0.042,-0.983 -0.388,-0.845 -0.301,0.097 -0.278,0.263 -0.278,0.263 0.181,-0.11 0.62,0.259 0.334,0.541 -0.387,0.379 -1.026,-0.485 -0.61,-0.873 0.394,-0.369 0.906,-0.259 1.19,-0.004 0.147,0.132 0.598,0.697 0.224,1.21 -0.447,0.612 -1.207,0.319 -2.067,-0.222 -0.859,-0.54 -2.537,-2.635 -2.537,-2.635 -0.402,-0.152 -0.776,-0.568 -0.776,-0.568 0,0 0.374,0.583 0.236,0.68 -0.357,0.25 -1.401,-0.43 -1.401,-0.43 l -0.042,-0.18 c 0,0 0.93,0.54 0.943,0.193 0.012,-0.297 -0.397,-0.817 -0.867,-1.394 -0.318,-0.388 -0.714,-0.658 -0.714,-0.658 0.971,0.347 2.275,0.265 3.619,0.125 1.345,-0.139 2.192,0.444 2.192,0.444 0.388,-0.804 1.843,0.194 1.843,0.194 -0.597,-1.054 -1.982,-3.202 -2.814,-4.187 -0.833,-0.985 -2.191,-2.081 -2.191,-2.081 l 0.207,0 c 0,0 0.972,0.819 1.734,1.567 0.763,0.749 1.622,1.79 2.372,2.885 0.748,1.095 1.649,2.731 1.649,2.731 0,0 0.902,0.527 1.095,0.43 0.194,-0.097 -0.179,-0.734 -0.443,-1.192 -0.264,-0.458 -0.915,-0.902 -0.915,-0.902 0.416,0.083 0.86,0.209 1.124,0.529 0.262,0.319 0.623,1.093 0.623,1.093 0.748,0.5 1.566,0.514 1.566,0.514 0,0 -1.372,-0.888 -1.012,-1.595 0.361,-0.707 1.762,0.041 1.762,0.041 0,0 -1.166,-2.037 -3.203,-4.131 -2.039,-2.094 -4.022,-3.203 -4.022,-3.203 l 0.235,0 c 1.485,0.832 3.828,2.745 5.38,4.576 1.554,1.83 2.497,3.688 2.497,3.688 0,0 0.389,0.26 0.914,0.485 0.584,0.249 0.402,-0.401 0.43,-1.234 0.028,-0.833 0.957,-0.499 0.957,-0.499 0,0 -0.444,-0.832 -1.275,-1.817 -1.395,-1.65 -2.954,-2.55 -2.954,-2.55 l 0.167,0 c 0.901,0.512 1.788,1.206 3.065,2.508 1.275,1.304 1.982,2.884 1.982,2.884 0.402,0.403 1.07,0.854 1.178,0.805 0.152,-0.069 -0.027,-0.513 -0.096,-0.749 -0.071,-0.236 -0.542,-1.664 -1.984,-3.715 -1.392,-1.982 -2.634,-2.69 -2.634,-2.69 l 0.194,0 c 0.943,0.651 1.803,1.484 2.801,2.8 0.998,1.318 1.456,2.399 1.456,2.399 z m -15.031,0.458 c 0,0 -0.942,0.027 -1.566,-0.194 0,0 1.328,1.892 2.039,1.649 0.609,-0.207 -0.126,-1.22 -0.473,-1.455 z m 1.401,-0.125 c 0,0 -0.734,0.097 -1.137,0.11 0,0 0.79,0.625 0.874,1.165 0,0 0.651,0.652 1.067,0.333 0.416,-0.318 -0.249,-1.22 -0.804,-1.608 z m 8.749,0.485 c 0,0 -1.199,-0.784 -1.428,-0.069 -0.236,0.734 0.874,1.261 0.874,1.261 0,0 0.735,0.028 1.219,-0.069 l -0.665,-1.123 z m 3.175,-0.346 c 0,0 -0.665,-0.513 -0.679,0.291 -0.012,0.734 0.027,0.887 0.027,0.887 0,0 0.534,0.533 0.999,0.374 0.526,-0.18 -0.347,-1.552 -0.347,-1.552 z m 3.231,1.372 c 0.368,0.181 0.67,0.228 0.731,0.071 0.119,-0.309 -0.187,-1.047 -0.551,-1.375 0,0 -0.721,0.153 -1.525,-0.207 0,0 0.459,1.074 1.345,1.511 z" /></g><g
         transform="matrix(3.5961261,0,0,3.5961261,-355.53063,-267.22684)"
         id="g2907"><path
           inkscape:connector-curvature="0"
           id="path2909"
           style="fill:#000000;fill-opacity:1;fill-rule:evenodd;stroke:none"
           d="m 160.644,100.504 c 0.166,0.138 0.583,0.682 0.72,0.918 0.139,0.238 -0.137,0.238 -0.356,0.02 -0.217,-0.217 -0.305,-0.533 -0.483,-0.76 -0.178,-0.228 -0.327,-0.267 -0.247,-0.346 0.079,-0.079 0.198,0.029 0.366,0.168 z" /></g><g
         transform="matrix(3.5961261,0,0,3.5961261,-355.53063,-267.22684)"
         id="g2911"><path
           inkscape:connector-curvature="0"
           id="path2913"
           style="fill:#000000;fill-opacity:1;fill-rule:evenodd;stroke:none"
           d="m 163.738,101.442 c -0.217,-0.217 -0.306,-0.533 -0.484,-0.76 -0.177,-0.228 -0.327,-0.267 -0.247,-0.346 0.079,-0.079 0.199,0.029 0.367,0.168 0.166,0.138 0.582,0.682 0.72,0.918 0.138,0.238 -0.138,0.238 -0.356,0.02 z" /></g><g
         transform="matrix(3.5961261,0,0,3.5961261,-355.53063,-267.22684)"
         id="g2915"><path
           inkscape:connector-curvature="0"
           id="path2917"
           style="fill:#000000;fill-opacity:1;fill-rule:evenodd;stroke:none"
           d="m 172.246,100.767 c 0.169,0.139 0.583,0.682 0.722,0.919 0.139,0.237 -0.139,0.237 -0.356,0.019 -0.217,-0.217 -0.306,-0.533 -0.484,-0.76 -0.177,-0.228 -0.326,-0.267 -0.247,-0.346 0.079,-0.079 0.198,0.029 0.365,0.168 z" /></g><g
         transform="matrix(3.5961261,0,0,3.5961261,-355.53063,-267.22684)"
         id="g2919"><path
           inkscape:connector-curvature="0"
           id="path2921"
           style="fill:#000000;fill-opacity:1;fill-rule:evenodd;stroke:none"
           d="m 172.516,99.944 c 1.228,-0.128 1.164,0.804 1.164,0.804 -0.096,-0.305 -0.582,-0.499 -1.33,-0.375 -0.513,0.086 -1.457,0.123 -1.956,-0.124 -0.561,-0.279 -0.776,-0.722 -0.776,-0.722 0.847,0.874 1.831,0.527 2.898,0.417 z" /></g><g
         transform="matrix(3.5961261,0,0,3.5961261,-355.53063,-267.22684)"
         id="g2923"><path
           inkscape:connector-curvature="0"
           id="path2925"
           style="fill:#000000;fill-opacity:1;fill-rule:evenodd;stroke:none"
           d="m 183.193,101.788 c -0.364,0.269 -1.297,-0.718 -0.473,-1.165 0.524,-0.284 0.943,-0.017 1.247,0.388 0.32,0.419 0.419,0.917 0.043,1.234 -0.807,0.681 -1.983,-0.277 -2.842,-0.998 -0.86,-0.721 -1.803,-1.775 -1.803,-1.775 -1.456,0 -2.967,-0.86 -2.967,-0.86 0,0 0.195,0.93 -0.596,0.819 -0.858,-0.12 -1.706,-0.93 -1.706,-0.93 0,0 0.632,1.238 -0.207,0.93 -0.964,-0.354 -1.289,-0.819 -1.289,-0.819 0,0 0.929,0.611 1.109,0.458 0.18,-0.153 0.014,-0.583 -0.18,-0.998 -0.196,-0.416 -0.472,-1.248 -2.316,-3.855 -1.817,-2.567 -4.008,-4.174 -4.008,-4.174 l 0.209,0 c 1.719,1.346 2.551,2.399 3.827,3.855 1.275,1.457 2.606,4.063 2.606,4.063 0.249,0.264 0.691,0.766 1.29,0.984 0.61,0.222 0.942,-0.347 0.582,-1.067 -0.361,-0.722 -1.068,-0.5 -1.068,-0.5 0.278,0.042 0.305,0.542 -0.124,0.527 -0.421,-0.014 -0.667,-0.901 0.402,-0.789 0.928,0.095 1.414,1.289 1.414,1.289 1.969,1.026 3.467,0.512 3.467,0.512 -1.969,-0.554 -3.342,-2.246 -2.399,-3.175 0.554,-0.547 1.341,-0.759 2.13,-0.773 0.723,-0.014 1.055,0.134 1.63,0.402 1.498,0.698 1.509,2.478 0.177,2.298 -1.331,-0.18 -1.193,-1.427 -0.457,-1.359 0.735,0.07 0.471,0.638 0.221,0.638 -0.249,0 -0.332,-0.277 -0.332,-0.277 -0.236,0.098 -0.166,0.347 -0.166,0.347 0.36,0.665 1.371,0.444 1.427,-0.153 0.056,-0.596 -1.004,-1.637 -2.176,-1.51 -1.306,0.14 -2.621,0.79 -2.122,1.94 0.499,1.151 2.635,1.526 2.635,1.526 0.915,-0.36 1.397,-0.403 2.257,-0.125 0.86,0.277 1.275,1.014 1.275,1.014 l -0.538,-0.178 c -0.478,-0.902 -1.233,-0.701 -1.977,-0.464 -0.751,0.24 -1.752,0.376 -1.752,0.376 0.721,0.902 1.025,1.151 2.079,1.956 1.055,0.804 1.608,0.61 1.831,0.443 0.221,-0.166 0.387,-0.569 0.151,-0.805 -0.236,-0.235 -0.456,-0.248 -0.706,-0.165 -0.249,0.083 -0.264,0.388 -0.264,0.388 0.389,-0.221 0.778,0.291 0.459,0.527 z" /></g><path
         inkscape:connector-curvature="0"
         sodipodi:nodetypes="csssssc"
         id="path4666"
         d="m -3.0658508,134.88103 c 0,0 -0.9952028,-0.5971 -1.2340517,0.39813 -0.2300181,0.95838 2.1496356,1.79129 4.14005769,0.63691 1.99042201,-1.15445 2.50792501,-2.9458 5.33428451,-2.10983 2.8263597,0.83601 2.0301983,-1.67198 0.4776893,-1.07485 -1.5525088,0.59716 -2.2777906,-1.18734 -6.40910417,1.27385 -1.87098483,1.11467 -1.87098483,1.67195 -2.30887563,0.87579 z"
         style="fill:#000000;fill-opacity:1;fill-rule:evenodd;stroke:none;stroke-width:1px;stroke-linecap:butt;stroke-linejoin:miter;stroke-opacity:1" /><path
         inkscape:connector-curvature="0"
         style="fill:#000000;fill-opacity:1;fill-rule:evenodd;stroke:none;stroke-width:1px;stroke-linecap:butt;stroke-linejoin:miter;stroke-opacity:1"
         d="m -2.8821874,142.1181 c 0,0 -1.2317198,-0.25263 -1.0796353,1.07992 0.1464544,1.28326 3.57431097,1.59736 5.1141843,-0.77142 1.5398732,-2.36883 0.6372803,-5.24738 3.7972524,-5.58203 3.1599724,-0.3347 1.3762452,-3.02113 0.055851,-1.54469 -1.3203561,1.47643 -2.1912475,-0.27918 -5.36187388,4.7171 -1.43589762,2.26262 -1.77406732,2.86507 -2.52577892,2.10112 z"
         id="path4668"
         sodipodi:nodetypes="csssssc" /><path
         inkscape:connector-curvature="0"
         style="fill:#000000;fill-opacity:1;fill-rule:evenodd;stroke:none;stroke-width:1px;stroke-linecap:butt;stroke-linejoin:miter;stroke-opacity:1"
         d="m 301.92459,134.77789 c 0,0 0.94944,-0.56962 1.17729,0.37982 0.21948,0.91429 -2.05072,1.70891 -3.94963,0.60764 -1.89887,-1.10137 -2.39263,-2.81037 -5.08901,-2.01283 -2.69634,0.79755 -1.93681,-1.59505 -0.45566,-1.0254 1.48109,0.5697 2.17299,-1.13276 6.11436,1.21528 1.78492,1.06338 1.78492,1.59505 2.20265,0.83549 z"
         id="path4670"
         sodipodi:nodetypes="csssssc" /><path
         inkscape:connector-curvature="0"
         sodipodi:nodetypes="csssssc"
         id="path4672"
         d="m 301.74937,141.68214 c 0,0 1.17508,-0.24105 1.03001,1.03026 -0.13975,1.22424 -3.40993,1.52387 -4.879,-0.73598 -1.46903,-2.25984 -0.60793,-5.00602 -3.62259,-5.32527 -3.01467,-0.3193 -1.31296,-2.88221 -0.0533,-1.47371 1.2596,1.40862 2.0905,-0.26632 5.11525,4.50017 1.36989,2.15862 1.69254,2.73328 2.40964,2.00453 z"
         style="fill:#000000;fill-opacity:1;fill-rule:evenodd;stroke:none;stroke-width:1px;stroke-linecap:butt;stroke-linejoin:miter;stroke-opacity:1" /></g></g></svg>